<svg xmlns="http://www.w3.org/2000/svg" viewBox="0 0 33.91 33.9">
  <defs>
    <style>
      .cls-1 {
        fill: #fff;
      }
    </style>
  </defs>
  <g id="Ebene_2" data-name="Ebene 2">
    <g id="Ebene_1-2" data-name="Ebene 1">
      <path class="cls-1" d="M32.5,17H23.7V13.9a1.47,1.47,0,0,0-1.5-1.5H11.8a1.54,1.54,0,0,0-1.5,1.5v7.7H1.5A1.47,1.47,0,0,0,0,23.1v9.3a1.47,1.47,0,0,0,1.5,1.5H32.4a1.47,1.47,0,0,0,1.5-1.5V18.5A1.39,1.39,0,0,0,32.5,17ZM10.3,30.9H3.1V24.7h7.2ZM20.6,18.5V30.9H13.4V15.5h7.2ZM30.9,30.9H23.7V20.1h7.2ZM21.6,3.5,19,5.6l.8,3.6L17,7.2,14.1,9.3l.8-3.6L12.4,3.5,15.5,3,17,0l1.5,3.1Z"/>
    </g>
  </g>
</svg>
